<svg xmlns="http://www.w3.org/2000/svg" xmlns:xlink="http://www.w3.org/1999/xlink" width="500" zoomAndPan="magnify" viewBox="0 0 375 374.999991" height="500" preserveAspectRatio="xMidYMid meet" version="1.0"><defs><clipPath id="f2e5c7f9cd"><path d="M 40 86.0625 L 335 86.0625 L 335 123 L 40 123 Z M 40 86.0625 " clip-rule="nonzero"/></clipPath><clipPath id="8aa26b6d89"><path d="M 40 86.0625 L 335 86.0625 L 335 123 L 40 123 Z M 40 86.0625 " clip-rule="nonzero"/></clipPath></defs><g clip-path="url(#f2e5c7f9cd)"><path fill="#ffffff" d="M 316.074219 86.148438 L 58.925781 86.148438 C 48.796875 86.148438 40.558594 94.386719 40.558594 104.515625 C 40.558594 114.648438 48.796875 122.886719 58.925781 122.886719 L 316.074219 122.886719 C 326.199219 122.886719 334.441406 114.648438 334.441406 104.515625 C 334.441406 94.386719 326.199219 86.148438 316.074219 86.148438 Z M 316.074219 86.148438 " fill-opacity="1" fill-rule="nonzero"/></g><path fill="#ffffff" d="M 316.074219 169.132812 L 58.925781 169.132812 C 48.796875 169.132812 40.558594 177.371094 40.558594 187.5 C 40.558594 197.628906 48.796875 205.867188 58.925781 205.867188 L 316.074219 205.867188 C 326.199219 205.867188 334.441406 197.628906 334.441406 187.5 C 334.441406 177.371094 326.199219 169.132812 316.074219 169.132812 Z M 316.074219 169.132812 " fill-opacity="1" fill-rule="nonzero"/><path fill="#ffffff" d="M 316.074219 252.113281 L 58.925781 252.113281 C 48.796875 252.113281 40.558594 260.351562 40.558594 270.484375 C 40.558594 280.613281 48.796875 288.851562 58.925781 288.851562 L 316.074219 288.851562 C 326.199219 288.851562 334.441406 280.613281 334.441406 270.484375 C 334.441406 260.351562 326.199219 252.113281 316.074219 252.113281 Z M 316.074219 252.113281 " fill-opacity="1" fill-rule="nonzero"/><g clip-path="url(#8aa26b6d89)"><path fill="#ffffff" d="M 316.074219 86.148438 L 58.925781 86.148438 C 48.796875 86.148438 40.558594 94.386719 40.558594 104.515625 C 40.558594 114.648438 48.796875 122.886719 58.925781 122.886719 L 316.074219 122.886719 C 326.199219 122.886719 334.441406 114.648438 334.441406 104.515625 C 334.441406 94.386719 326.199219 86.148438 316.074219 86.148438 Z M 316.074219 86.148438 " fill-opacity="1" fill-rule="nonzero"/></g><path fill="#ffffff" d="M 316.074219 169.132812 L 58.925781 169.132812 C 48.796875 169.132812 40.558594 177.371094 40.558594 187.5 C 40.558594 197.628906 48.796875 205.867188 58.925781 205.867188 L 316.074219 205.867188 C 326.199219 205.867188 334.441406 197.628906 334.441406 187.5 C 334.441406 177.371094 326.199219 169.132812 316.074219 169.132812 Z M 316.074219 169.132812 " fill-opacity="1" fill-rule="nonzero"/><path fill="#ffffff" d="M 316.074219 252.113281 L 58.925781 252.113281 C 48.796875 252.113281 40.558594 260.351562 40.558594 270.484375 C 40.558594 280.613281 48.796875 288.851562 58.925781 288.851562 L 316.074219 288.851562 C 326.199219 288.851562 334.441406 280.613281 334.441406 270.484375 C 334.441406 260.351562 326.199219 252.113281 316.074219 252.113281 Z M 316.074219 252.113281 " fill-opacity="1" fill-rule="nonzero"/></svg>